<?xml version="1.0" encoding="UTF-8"?>
<svg width="220px" height="151px" viewBox="0 0 220 151" version="1.1" xmlns="http://www.w3.org/2000/svg" xmlns:xlink="http://www.w3.org/1999/xlink">
    <!-- Generator: Sketch 49.3 (51167) - http://www.bohemiancoding.com/sketch -->
    <title>Untitled</title>
    <desc>Created with Sketch.</desc>
    <defs>
        <rect id="path-1" x="0" y="0" width="220" height="151"></rect>
        <circle id="path-2" cx="36.5" cy="36.5" r="36.5"></circle>
        <path d="M3.63636364,48.5714286 C3.63636364,68.690373 19.9169182,85 40,85 C60.0830818,85 76.3636364,68.690373 76.3636364,48.5714286 L80,48.5714286 L80,-1.42108547e-14 L-3.19744231e-14,-1.42108547e-14 L-3.19744231e-14,48.5714286 L3.63636364,48.5714286 Z" id="path-4"></path>
        <path d="M37.5757576,43.899753 L37.5757576,49.4821429 L38.7878788,49.4821429 C50.8377279,49.4821429 60.6060606,59.267919 60.6060606,71.3392857 L60.6060606,74.0714286 L0,74.0714286 L0,71.3392857 C-1.47568091e-15,59.267919 9.76833273,49.4821429 21.8181818,49.4821429 L23.030303,49.4821429 L23.030303,43.899753 C17.8068589,41.4139344 14.0521893,36.3335569 13.4257996,30.3210903 C11.6607002,30.0711138 10.3030303,28.5515333 10.3030303,26.7142857 L10.3030303,22.4642857 C10.3030303,20.6592522 11.6135071,19.1608436 13.3333333,18.8717962 L13.3333333,17 C13.3333333,7.61115925 20.9309255,1.72470207e-15 30.3030303,0 C39.6751352,-1.72470207e-15 47.2727273,7.61115925 47.2727273,17 L47.2727273,18.8717962 C48.9925536,19.1608436 50.3030303,20.6592522 50.3030303,22.4642857 L50.3030303,26.7142857 C50.3030303,28.5515333 48.9453606,30.0711138 47.1802609,30.3210903 C46.5538712,36.3335569 42.7992015,41.4139344 37.5757576,43.899753 Z" id="path-6"></path>
        <path d="M37.5757576,43.899753 L37.5757576,49.4821429 L38.7878788,49.4821429 C50.8377279,49.4821429 60.6060606,59.267919 60.6060606,71.3392857 L60.6060606,74.0714286 L0,74.0714286 L0,71.3392857 C-1.47568091e-15,59.267919 9.76833273,49.4821429 21.8181818,49.4821429 L23.030303,49.4821429 L23.030303,43.899753 C17.8068589,41.4139344 14.0521893,36.3335569 13.4257996,30.3210903 C11.6607002,30.0711138 10.3030303,28.5515333 10.3030303,26.7142857 L10.3030303,22.4642857 C10.3030303,20.6592522 11.6135071,19.1608436 13.3333333,18.8717962 L13.3333333,17 C13.3333333,7.61115925 20.9309255,1.72470207e-15 30.3030303,0 C39.6751352,-1.72470207e-15 47.2727273,7.61115925 47.2727273,17 L47.2727273,18.8717962 C48.9925536,19.1608436 50.3030303,20.6592522 50.3030303,22.4642857 L50.3030303,26.7142857 C50.3030303,28.5515333 48.9453606,30.0711138 47.1802609,30.3210903 C46.5538712,36.3335569 42.7992015,41.4139344 37.5757576,43.899753 Z" id="path-8"></path>
        <path d="M23.030303,0.0215188429 C17.6003941,0.630195464 13.4181341,2.29252107 13.334607,6.57079374 C5.49891906,9.88674261 0,17.6571185 0,26.7141294 L0,29.4464286 L60.6060606,29.4464286 L60.6060606,26.7141294 C60.6060606,17.6571185 55.1071415,9.88674261 47.2714536,6.57079847 C47.1879267,2.29252107 43.0056664,0.630195464 37.5757576,0.0215188429 L37.5757576,5.76785714 C37.5757576,9.79164604 34.3196467,13.0535714 30.3030303,13.0535714 C26.2864139,13.0535714 23.030303,9.79164604 23.030303,5.76785714 L23.030303,0.0215188429 Z" id="path-10"></path>
        <path d="M23.030303,0.0215188429 C17.6003941,0.630195464 13.4181341,2.29252107 13.334607,6.57079374 C5.49891906,9.88674261 0,17.6571185 0,26.7141294 L0,29.4464286 L60.6060606,29.4464286 L60.6060606,26.7141294 C60.6060606,17.6571185 55.1071415,9.88674261 47.2714536,6.57079847 C47.1879267,2.29252107 43.0056664,0.630195464 37.5757576,0.0215188429 L37.5757576,5.76785714 C37.5757576,9.79164604 34.3196467,13.0535714 30.3030303,13.0535714 C26.2864139,13.0535714 23.030303,9.79164604 23.030303,5.76785714 L23.030303,0.0215188429 Z" id="path-12"></path>
        <path d="M23.030303,0.0215188429 C17.6003941,0.630195464 13.4181341,2.29252107 13.334607,6.57079374 C5.49891906,9.88674261 0,17.6571185 0,26.7141294 L0,29.4464286 L60.6060606,29.4464286 L60.6060606,26.7141294 C60.6060606,17.6571185 55.1071415,9.88674261 47.2714536,6.57079847 C47.1879267,2.29252107 43.0056664,0.630195464 37.5757576,0.0215188429 L37.5757576,5.76785714 C37.5757576,9.79164604 34.3196467,13.0535714 30.3030303,13.0535714 C26.2864139,13.0535714 23.030303,9.79164604 23.030303,5.76785714 L23.030303,0.0215188429 Z" id="path-14"></path>
        <path d="M0.035710303,0.646023436 C0.356276394,3.52744004 2.79575373,5.76785714 5.75757576,5.76785714 C8.72854712,5.76785714 11.1739417,3.513577 11.4823513,0.619302289 C11.5071723,0.386369321 11.2474978,0 10.9220506,0 C6.40871321,0 2.95088524,0 0.63237103,0 C0.305035394,0 0.00363812121,0.357741777 0.035710303,0.646023436 Z" id="path-16"></path>
        <path d="M0.035710303,0.646023436 C0.356276394,3.52744004 2.79575373,5.76785714 5.75757576,5.76785714 C8.72854712,5.76785714 11.1739417,3.513577 11.4823513,0.619302289 C11.5071723,0.386369321 11.2474978,0 10.9220506,0 C6.40871321,0 2.95088524,0 0.63237103,0 C0.305035394,0 0.00363812121,0.357741777 0.035710303,0.646023436 Z" id="path-18"></path>
        <rect id="path-20" x="0" y="0" width="80" height="85"></rect>
        <path d="M6.43997785,13.0602849 C6.47725312,13.0437706 6.38474885,13.037426 6.162465,13.0412813 C6.43262536,13.0407349 6.52512967,13.0470492 6.43997785,13.0602849 M3.97484167,8.28798341 C3.97419461,8.28203341 3.9799257,8.33385305 3.97484167,8.28798341 M36.5954715,18.7502916 C36.5154382,17.7433657 36.3736212,16.7425369 36.1353564,15.7587214 C35.9461312,14.9768024 35.6875779,14.2306801 35.38182,13.484656 C35.1971827,13.0339536 34.7659206,12.4148894 34.7152497,11.9286855 C34.6652927,11.4497589 35.0383397,10.9192026 35.1179652,10.3616022 C35.1952458,9.81894989 35.1820936,9.24836835 35.0709645,8.71063313 C34.8185285,7.48941946 33.9819003,6.35376357 32.6900506,6.0354298 C32.4016248,5.96432839 31.7919445,6.05195131 31.58814,5.88368777 C31.3544633,5.69074035 31.1917458,5.03342096 30.980193,4.7697655 C30.3770376,4.01813594 29.4363152,3.53409554 28.4442082,3.70285078 C27.7136112,3.827057 28.1331488,3.97840566 27.5854561,3.54766677 C27.2809215,3.30820346 27.0533621,2.9425671 26.7575958,2.68333704 C26.3129776,2.29390186 25.8029055,1.96052175 25.2751958,1.68693368 C23.8943409,0.971100714 22.3194694,0.45077203 20.7770188,0.197147461 C17.9633133,-0.265552668 14.9602806,0.137847105 12.2329297,0.870889995 C10.87583,1.23564127 9.50955485,1.69853806 8.24910697,2.31071838 C7.70865279,2.57319374 7.39667588,2.79092342 6.83318033,2.85966462 C5.94567742,2.96793941 5.19407815,2.96253059 4.35337176,3.33957462 C1.76661421,4.49981609 0.601492606,7.1915409 1.60807694,9.76741858 C1.81055606,10.2854853 2.0847083,10.7404165 2.46264897,11.1588626 C2.92347761,11.669062 3.09017115,11.5686546 2.69326718,12.1553643 C2.09969542,13.0326752 1.59930894,13.9682047 1.19190382,14.9396291 C0.122516303,17.4901345 -0.0564116364,20.3627106 0.0132224242,23.0827579 C0.0375892424,24.0350056 0.0783705455,24.998956 0.228241818,25.9420579 C0.292982121,26.3502764 0.311129788,27.1178374 0.616785606,27.4207315 C0.771856485,27.574342 0.992789152,27.6599981 1.21321203,27.5988292 C1.73123642,27.4550529 1.55312412,27.0721083 1.56515461,26.7166012 C1.62571485,24.9305098 1.54394833,23.3504455 1.96797185,21.5858911 C2.28117221,20.2821683 2.80317279,19.098128 3.47963252,17.9323794 C4.33981197,16.4496738 5.26840206,15.1475245 6.45136548,13.8779265 C6.72949391,13.5793595 6.79025803,13.4527931 7.16320297,13.4311578 C7.44561345,13.414833 7.85872797,13.6085672 8.13328803,13.6756366 C8.73868636,13.8234449 9.34520606,13.9695815 9.96161545,14.0691038 C11.0949276,14.2521187 12.217127,14.2644114 13.3606345,14.2285165 C15.6110482,14.1580051 17.8711476,13.9998709 20.0530488,13.4321412 C21.5021103,13.0551955 22.786823,12.3785027 24.1748142,11.8824646 C24.1995891,11.8736138 24.5474533,11.6252997 24.6084215,11.635429 C24.6935524,11.6494919 25.2074988,12.1896857 25.2942609,12.2577385 C25.9686815,12.7876064 26.7084542,13.0100565 27.4368082,13.4203402 C28.3348124,13.9262125 27.4651512,13.2023155 27.96044,13.8327874 C28.1048058,14.0163924 28.1787218,14.3568531 28.2945406,14.5648469 C28.6629997,15.2274768 29.1756206,15.8098594 29.7887673,16.2719694 C30.3812176,16.7184431 31.2715752,16.9341076 31.5736627,17.5152117 C31.8066258,17.9635539 31.88513,18.5728823 32.0731315,19.0515138 C32.5662794,20.3068522 33.2175567,21.477518 33.8688339,22.6598864 C34.3934855,23.6127241 34.96738,24.4450927 35.0256973,25.5339377 C35.0459861,25.9129486 34.6859891,28.1864241 35.5628891,27.4949798 C35.6928794,27.3925072 35.9731488,26.2333475 36.0307524,26.0366631 C36.2644291,25.2374359 36.3475212,24.4031005 36.4533485,23.581943 C36.66378,21.9488722 36.7329042,20.3950652 36.5954715,18.7502916" id="path-22"></path>
    </defs>
    <g id="Page-2" stroke="none" stroke-width="1" fill="none" fill-rule="evenodd">
        <g id="avataaars">
            <g id="Rectangle">
                <use fill="#65C9FF" fill-rule="evenodd" xlink:href="#path-1"></use>
                <rect stroke="#65C9FF" stroke-width="1" x="0.5" y="0.5" width="219" height="150"></rect>
            </g>
            <g id="Circle" transform="translate(73.000000, 45.000000)">
                <g id="Circle-Background" fill="#E6E6E6" fill-rule="nonzero">
                    <circle id="path-1" cx="36.5" cy="36.5" r="36.5"></circle>
                </g>
                <g id="Color/Palette/Blue-01-Clipped">
                    <mask id="mask-3" fill="white">
                        <use xlink:href="#path-2"></use>
                    </mask>
                    <g id="path-1"></g>
                    <g id="Color/Palette/Blue-01" mask="url(#mask-3)" fill="#65C9FF" fill-rule="nonzero">
                        <rect id="ðŸ–Color" x="0" y="0" width="73" height="73"></rect>
                    </g>
                </g>
            </g>
            <g id="Avataaar-Clipped" transform="translate(69.000000, 33.000000)">
                <mask id="mask-5" fill="white">
                    <use xlink:href="#path-4"></use>
                </mask>
                <g id="path-3"></g>
                <g id="Avataaar" mask="url(#mask-5)">
                    <g id="Body" transform="translate(9.696970, 10.928571)">
                        <g id="path-5-link" fill="#D0C6AC" fill-rule="nonzero">
                            <path d="M37.5757576,43.899753 L37.5757576,49.4821429 L38.7878788,49.4821429 C50.8377279,49.4821429 60.6060606,59.267919 60.6060606,71.3392857 L60.6060606,74.0714286 L0,74.0714286 L0,71.3392857 C-1.47568091e-15,59.267919 9.76833273,49.4821429 21.8181818,49.4821429 L23.030303,49.4821429 L23.030303,43.899753 C17.8068589,41.4139344 14.0521893,36.3335569 13.4257996,30.3210903 C11.6607002,30.0711138 10.3030303,28.5515333 10.3030303,26.7142857 L10.3030303,22.4642857 C10.3030303,20.6592522 11.6135071,19.1608436 13.3333333,18.8717962 L13.3333333,17 C13.3333333,7.61115925 20.9309255,1.72470207e-15 30.3030303,0 C39.6751352,-1.72470207e-15 47.2727273,7.61115925 47.2727273,17 L47.2727273,18.8717962 C48.9925536,19.1608436 50.3030303,20.6592522 50.3030303,22.4642857 L50.3030303,26.7142857 C50.3030303,28.5515333 48.9453606,30.0711138 47.1802609,30.3210903 C46.5538712,36.3335569 42.7992015,41.4139344 37.5757576,43.899753 Z" id="path-5"></path>
                        </g>
                        <g id="Skin/ðŸ‘¶ðŸ½-03-Brown-Clipped">
                            <mask id="mask-7" fill="white">
                                <use xlink:href="#path-6"></use>
                            </mask>
                            <g id="path-5"></g>
                            <g id="Skin/ðŸ‘¶ðŸ½-03-Brown" mask="url(#mask-7)">
                                <g transform="translate(-9.696970, 0.000000)" id="Color">
                                    <g>
                                        <rect id="Rectangle-path" fill="#F8D25C" fill-rule="nonzero" x="0" y="0" width="80" height="74.0714286"></rect>
                                    </g>
                                </g>
                            </g>
                        </g>
                        <g id="Neck-Shadow-Clipped">
                            <mask id="mask-9" fill="white">
                                <use xlink:href="#path-8"></use>
                            </mask>
                            <g id="path-5"></g>
                            <path d="M47.2727273,23.9821429 L47.2727273,30.9642857 C47.2727273,40.3531265 39.6751352,47.9642857 30.3030303,47.9642857 C20.9309255,47.9642857 13.3333333,40.3531265 13.3333333,30.9642857 L13.3333333,23.9821429 L13.3333333,28.5357143 C13.3333333,37.924555 20.9309255,45.5357143 30.3030303,45.5357143 C39.6751352,45.5357143 47.2727273,37.924555 47.2727273,28.5357143 L47.2727273,23.9821429 Z" id="Neck-Shadow" fill-opacity="0.100000001" fill="#000000" fill-rule="nonzero" mask="url(#mask-9)"></path>
                        </g>
                    </g>
                    <g id="Clothing/Hoodie" transform="translate(9.696970, 55.553571)">
                        <g id="Hoodie" fill="#B7C1DB">
                            <path d="M23.030303,0.0215188429 C17.6003941,0.630195464 13.4181341,2.29252107 13.334607,6.57079374 C5.49891906,9.88674261 0,17.6571185 0,26.7141294 L0,29.4464286 L60.6060606,29.4464286 L60.6060606,26.7141294 C60.6060606,17.6571185 55.1071415,9.88674261 47.2714536,6.57079847 C47.1879267,2.29252107 43.0056664,0.630195464 37.5757576,0.0215188429 L37.5757576,5.76785714 C37.5757576,9.79164604 34.3196467,13.0535714 30.3030303,13.0535714 C26.2864139,13.0535714 23.030303,9.79164604 23.030303,5.76785714 L23.030303,0.0215188429 Z" id="react-path-24"></path>
                        </g>
                        <g id="Color/Palette/Gray-01-Clipped">
                            <mask id="mask-11" fill="white">
                                <use xlink:href="#path-10"></use>
                            </mask>
                            <g id="react-path-24"></g>
                            <g id="Color/Palette/Gray-01" mask="url(#mask-11)" fill="#3C4F5C">
                                <g transform="translate(-9.696970, -3.946429)" id="ðŸ–Color">
                                    <rect x="0" y="0" width="80" height="33.3928571"></rect>
                                </g>
                            </g>
                        </g>
                        <g id="Straps-Clipped">
                            <mask id="mask-13" fill="white">
                                <use xlink:href="#path-12"></use>
                            </mask>
                            <g id="react-path-24"></g>
                            <path d="M21.2121212,14.795784 L21.2121212,29.4464286 L19.0909091,29.4464286 L19.0909091,13.7063297 C19.7587134,14.1039461 20.468718,14.4684534 21.2121212,14.795784 Z M41.5151515,13.7063297 L41.5151515,25.9553571 C41.5151515,26.5421598 41.0403021,27.0178571 40.4545455,27.0178571 C39.8687888,27.0178571 39.3939394,26.5421598 39.3939394,25.9553571 L39.3939394,14.795784 C40.1373427,14.4684534 40.8473473,14.1039461 41.5151515,13.7063297 Z" id="Straps" fill="#F4F4F4" mask="url(#mask-13)"></path>
                        </g>
                        <g id="Shadow-Clipped">
                            <mask id="mask-15" fill="white">
                                <use xlink:href="#path-14"></use>
                            </mask>
                            <g id="react-path-24"></g>
                            <path d="M17.8667069,-0.0836783411 C13.3058514,0.780536239 10.1515152,2.50230428 10.1515152,5.86126373 C10.1515152,11.84536 20.1629335,16.6964286 30.3030303,16.6964286 C40.443127,16.6964286 50.4545455,11.84536 50.4545455,5.86126373 C50.4545455,2.50230428 47.3002091,0.780536239 42.7393536,-0.0836783411 C45.4924003,0.933318154 47.2727273,2.64290943 47.2727273,5.48763737 C47.2727273,11.6780818 38.8420591,16.6964286 30.3030303,16.6964286 C21.7640015,16.6964286 13.3333333,11.6780818 13.3333333,5.48763737 C13.3333333,2.64290943 15.1136605,0.933318154 17.8667069,-0.0836783411 Z" id="Shadow" fill-opacity="0.16" fill="#000000" mask="url(#mask-15)"></path>
                        </g>
                    </g>
                    <g id="Face" transform="translate(26.666667, 26.714286)">
                        <g id="Mouth/Concerned" transform="translate(7.575758, 16.910714)">
                            <g id="Mouth" transform="translate(6.000000, 3.767857) scale(-1, 1) rotate(-180.000000) translate(-6.000000, -3.767857) translate(0.000000, 0.767857)" fill="#000000" fill-opacity="0.699999988">
                                <path d="M0.035710303,0.646023436 C0.356276394,3.52744004 2.79575373,5.76785714 5.75757576,5.76785714 C8.72854712,5.76785714 11.1739417,3.513577 11.4823513,0.619302289 C11.5071723,0.386369321 11.2474978,0 10.9220506,0 C6.40871321,0 2.95088524,0 0.63237103,0 C0.305035394,0 0.00363812121,0.357741777 0.035710303,0.646023436 Z" id="react-path-26"></path>
                            </g>
                            <g id="Teeth-Clipped" transform="translate(0.000000, 1.000000)">
                                <mask id="mask-17" fill="white">
                                    <use xlink:href="#path-16"></use>
                                </mask>
                                <g id="react-path-26"></g>
                                <rect id="Teeth" fill="#FFFFFF" mask="url(#mask-17)" x="1.21212121" y="-3.33928571" width="9.39393939" height="4.85714286" rx="2.42857143"></rect>
                            </g>
                            <g id="Tongue-Clipped" transform="translate(0.000000, 1.000000)">
                                <mask id="mask-19" fill="white">
                                    <use xlink:href="#path-18"></use>
                                </mask>
                                <g id="react-path-26"></g>
                                <g id="Tongue" mask="url(#mask-19)">
                                    <g transform="translate(0.909091, 3.339286)" id="Group">
                                        <g>
                                            <ellipse id="friend?" fill="#FF4F6D" cx="3.33333333" cy="3.33928571" rx="3.33333333" ry="3.33928571"></ellipse>
                                            <ellipse id="How-you-doing" fill="#FF4F6D" cx="6.36363636" cy="3.33928571" rx="3.33333333" ry="3.33928571"></ellipse>
                                        </g>
                                    </g>
                                </g>
                            </g>
                        </g>
                        <g id="Nose/Default" transform="translate(9.696970, 12.750000)" fill="#000000" fill-opacity="0.16" fill-rule="nonzero">
                            <path d="M0,0 C0,1.34126296 1.62805545,2.42857143 3.63636364,2.42857143 C5.64467182,2.42857143 7.27272727,1.34126296 7.27272727,0" id="Nose"></path>
                        </g>
                        <g id="Eyes/Default-ðŸ˜€" transform="translate(3.636364, 5.464286)" fill="#000000" fill-opacity="0.599999964" fill-rule="nonzero">
                            <ellipse id="Eye" cx="1.81818182" cy="1.82142857" rx="1.81818182" ry="1.82142857"></ellipse>
                            <ellipse id="Eye" cx="17.5757576" cy="1.82142857" rx="1.81818182" ry="1.82142857"></ellipse>
                        </g>
                        <g id="Eyebrow/Outline/Default" fill="#000000" fill-opacity="0.599999964" fill-rule="nonzero">
                            <g id="I-Browse">
                                <path d="M1.10007435,3.38742507 C2.28641061,1.71513811 5.53876355,0.77739701 8.34031115,1.46660835 C8.66537115,1.54657667 8.99359591,1.34742004 9.0734217,1.02177957 C9.15324745,0.696139102 8.95444582,0.367328216 8.62938582,0.287359901 C5.37586767,-0.513041145 1.60972716,0.572838776 0.11204686,2.68400349 C-0.0818514018,2.95732695 -0.0178595126,3.33636569 0.254976745,3.53061021 C0.527813003,3.7248547 0.906176091,3.66074855 1.10007435,3.38742507 Z" id="Eyebrow"></path>
                                <path d="M18.6758322,3.38742507 C19.8621684,1.71513811 23.1145213,0.77739701 25.9160689,1.46660835 C26.2411289,1.54657667 26.5693537,1.34742004 26.6491795,1.02177957 C26.7290052,0.696139102 26.5302036,0.367328216 26.2051436,0.287359901 C22.9516255,-0.513041145 19.1854849,0.572838776 17.6878046,2.68400349 C17.4939064,2.95732695 17.5578983,3.33636569 17.8307346,3.53061021 C18.1035708,3.7248547 18.4819339,3.66074855 18.6758322,3.38742507 Z" id="Eyebrow" transform="translate(22.121259, 1.833328) scale(-1, 1) translate(-22.121259, -1.833328) "></path>
                            </g>
                        </g>
                    </g>
                    <g id="Top">
                        <g id="Top/Short-Hair/Short-Curly-Clipped">
                            <mask id="mask-21" fill="white">
                                <use xlink:href="#path-20"></use>
                            </mask>
                            <g id="react-path-11"></g>
                            <g id="Top/Short-Hair/Short-Curly" mask="url(#mask-21)">
                                <g transform="translate(21.818182, 2.732143)" id="Group">
                                    <g>
                                        <g id="Short-Hair" fill="#28354B">
                                            <path d="M6.43997785,13.0602849 C6.47725312,13.0437706 6.38474885,13.037426 6.162465,13.0412813 C6.43262536,13.0407349 6.52512967,13.0470492 6.43997785,13.0602849 M3.97484167,8.28798341 C3.97419461,8.28203341 3.9799257,8.33385305 3.97484167,8.28798341 M36.5954715,18.7502916 C36.5154382,17.7433657 36.3736212,16.7425369 36.1353564,15.7587214 C35.9461312,14.9768024 35.6875779,14.2306801 35.38182,13.484656 C35.1971827,13.0339536 34.7659206,12.4148894 34.7152497,11.9286855 C34.6652927,11.4497589 35.0383397,10.9192026 35.1179652,10.3616022 C35.1952458,9.81894989 35.1820936,9.24836835 35.0709645,8.71063313 C34.8185285,7.48941946 33.9819003,6.35376357 32.6900506,6.0354298 C32.4016248,5.96432839 31.7919445,6.05195131 31.58814,5.88368777 C31.3544633,5.69074035 31.1917458,5.03342096 30.980193,4.7697655 C30.3770376,4.01813594 29.4363152,3.53409554 28.4442082,3.70285078 C27.7136112,3.827057 28.1331488,3.97840566 27.5854561,3.54766677 C27.2809215,3.30820346 27.0533621,2.9425671 26.7575958,2.68333704 C26.3129776,2.29390186 25.8029055,1.96052175 25.2751958,1.68693368 C23.8943409,0.971100714 22.3194694,0.45077203 20.7770188,0.197147461 C17.9633133,-0.265552668 14.9602806,0.137847105 12.2329297,0.870889995 C10.87583,1.23564127 9.50955485,1.69853806 8.24910697,2.31071838 C7.70865279,2.57319374 7.39667588,2.79092342 6.83318033,2.85966462 C5.94567742,2.96793941 5.19407815,2.96253059 4.35337176,3.33957462 C1.76661421,4.49981609 0.601492606,7.1915409 1.60807694,9.76741858 C1.81055606,10.2854853 2.0847083,10.7404165 2.46264897,11.1588626 C2.92347761,11.669062 3.09017115,11.5686546 2.69326718,12.1553643 C2.09969542,13.0326752 1.59930894,13.9682047 1.19190382,14.9396291 C0.122516303,17.4901345 -0.0564116364,20.3627106 0.0132224242,23.0827579 C0.0375892424,24.0350056 0.0783705455,24.998956 0.228241818,25.9420579 C0.292982121,26.3502764 0.311129788,27.1178374 0.616785606,27.4207315 C0.771856485,27.574342 0.992789152,27.6599981 1.21321203,27.5988292 C1.73123642,27.4550529 1.55312412,27.0721083 1.56515461,26.7166012 C1.62571485,24.9305098 1.54394833,23.3504455 1.96797185,21.5858911 C2.28117221,20.2821683 2.80317279,19.098128 3.47963252,17.9323794 C4.33981197,16.4496738 5.26840206,15.1475245 6.45136548,13.8779265 C6.72949391,13.5793595 6.79025803,13.4527931 7.16320297,13.4311578 C7.44561345,13.414833 7.85872797,13.6085672 8.13328803,13.6756366 C8.73868636,13.8234449 9.34520606,13.9695815 9.96161545,14.0691038 C11.0949276,14.2521187 12.217127,14.2644114 13.3606345,14.2285165 C15.6110482,14.1580051 17.8711476,13.9998709 20.0530488,13.4321412 C21.5021103,13.0551955 22.786823,12.3785027 24.1748142,11.8824646 C24.1995891,11.8736138 24.5474533,11.6252997 24.6084215,11.635429 C24.6935524,11.6494919 25.2074988,12.1896857 25.2942609,12.2577385 C25.9686815,12.7876064 26.7084542,13.0100565 27.4368082,13.4203402 C28.3348124,13.9262125 27.4651512,13.2023155 27.96044,13.8327874 C28.1048058,14.0163924 28.1787218,14.3568531 28.2945406,14.5648469 C28.6629997,15.2274768 29.1756206,15.8098594 29.7887673,16.2719694 C30.3812176,16.7184431 31.2715752,16.9341076 31.5736627,17.5152117 C31.8066258,17.9635539 31.88513,18.5728823 32.0731315,19.0515138 C32.5662794,20.3068522 33.2175567,21.477518 33.8688339,22.6598864 C34.3934855,23.6127241 34.96738,24.4450927 35.0256973,25.5339377 C35.0459861,25.9129486 34.6859891,28.1864241 35.5628891,27.4949798 C35.6928794,27.3925072 35.9731488,26.2333475 36.0307524,26.0366631 C36.2644291,25.2374359 36.3475212,24.4031005 36.4533485,23.581943 C36.66378,21.9488722 36.7329042,20.3950652 36.5954715,18.7502916" id="react-path-10"></path>
                                        </g>
                                        <g id="Skin/ðŸ‘¶ðŸ½-03-Brown-Clipped">
                                            <mask id="mask-23" fill="white">
                                                <use xlink:href="#path-22"></use>
                                            </mask>
                                            <g id="react-path-10"></g>
                                            <g id="Skin/ðŸ‘¶ðŸ½-03-Brown" mask="url(#mask-23)">
                                                <g transform="translate(-22.121212, -2.732143)" id="Color">
                                                    <g>
                                                        <rect id="Rectangle-path" fill="#4A312C" fill-rule="nonzero" x="0" y="0" width="80" height="85"></rect>
                                                    </g>
                                                </g>
                                            </g>
                                        </g>
                                    </g>
                                </g>
                            </g>
                        </g>
                    </g>
                </g>
            </g>
        </g>
    </g>
</svg>